<svg width="99" height="13" viewBox="0 0 99 13" fill="none" xmlns="http://www.w3.org/2000/svg">
<path d="M0.0880001 12V0.639999H2.712V9.696H8.216V12H0.0880001ZM13.2085 12.16C12.4938 12.16 11.8592 12.048 11.3045 11.824C10.7498 11.5893 10.2752 11.2747 9.8805 10.88C9.4965 10.4853 9.20317 10.032 9.0005 9.52C8.79783 8.99733 8.6965 8.45333 8.6965 7.888C8.6965 7.07733 8.8725 6.34133 9.2245 5.68C9.58717 5.008 10.1045 4.46933 10.7765 4.064C11.4485 3.648 12.2592 3.44 13.2085 3.44C14.1578 3.44 14.9632 3.64267 15.6245 4.048C16.2965 4.45333 16.8085 4.98667 17.1605 5.648C17.5125 6.29867 17.6885 7.008 17.6885 7.776C17.6885 7.92533 17.6778 8.07467 17.6565 8.224C17.6458 8.36267 17.6352 8.48533 17.6245 8.592H11.4165C11.4485 8.96533 11.5498 9.28 11.7205 9.536C11.9018 9.792 12.1312 9.98933 12.4085 10.128C12.6858 10.256 12.9792 10.32 13.2885 10.32C13.6725 10.32 14.0298 10.2293 14.3605 10.048C14.7018 9.86667 14.9365 9.62133 15.0645 9.312L17.2405 9.92C17.0272 10.3573 16.7232 10.7467 16.3285 11.088C15.9445 11.4187 15.4858 11.68 14.9525 11.872C14.4298 12.064 13.8485 12.16 13.2085 12.16ZM11.3525 7.024H15.0005C14.9578 6.672 14.8565 6.368 14.6965 6.112C14.5365 5.84533 14.3232 5.64267 14.0565 5.504C13.7898 5.35467 13.4965 5.28 13.1765 5.28C12.8458 5.28 12.5472 5.35467 12.2805 5.504C12.0245 5.64267 11.8165 5.84533 11.6565 6.112C11.4965 6.368 11.3952 6.672 11.3525 7.024ZM18.3208 9.488C18.3208 8.93333 18.4754 8.448 18.7848 8.032C19.0941 7.616 19.5208 7.29067 20.0648 7.056C20.6088 6.81067 21.2328 6.688 21.9368 6.688C22.2781 6.688 22.6141 6.72 22.9448 6.784C23.2754 6.83733 23.5634 6.91733 23.8088 7.024V6.656C23.8088 6.19733 23.6701 5.84533 23.3928 5.6C23.1154 5.35467 22.6941 5.232 22.1288 5.232C21.6594 5.232 21.2168 5.312 20.8008 5.472C20.3954 5.632 19.9634 5.86133 19.5048 6.16L18.7368 4.528C19.2914 4.16533 19.8674 3.89333 20.4648 3.712C21.0728 3.53067 21.7128 3.44 22.3848 3.44C23.6434 3.44 24.6194 3.744 25.3128 4.352C26.0168 4.94933 26.3688 5.81867 26.3688 6.96V9.152C26.3688 9.408 26.4061 9.58933 26.4808 9.696C26.5661 9.792 26.7101 9.85067 26.9128 9.872V12C26.6994 12.0427 26.4968 12.0747 26.3048 12.096C26.1234 12.1173 25.9634 12.128 25.8248 12.128C25.3448 12.128 24.9768 12.032 24.7208 11.84C24.4754 11.648 24.3208 11.3867 24.2568 11.056L24.2088 10.688C23.8354 11.168 23.3874 11.536 22.8648 11.792C22.3528 12.0373 21.8141 12.16 21.2488 12.16C20.6941 12.16 20.1928 12.0427 19.7448 11.808C19.3074 11.5733 18.9608 11.2533 18.7048 10.848C18.4488 10.4427 18.3208 9.98933 18.3208 9.488ZM23.4088 9.808C23.5261 9.712 23.6221 9.60533 23.6968 9.488C23.7714 9.37067 23.8088 9.25867 23.8088 9.152V8.4C23.5954 8.31467 23.3554 8.25067 23.0888 8.208C22.8328 8.15467 22.5928 8.128 22.3688 8.128C21.8994 8.128 21.5101 8.23467 21.2008 8.448C20.8914 8.65067 20.7368 8.92267 20.7368 9.264C20.7368 9.456 20.7901 9.632 20.8968 9.792C21.0034 9.952 21.1474 10.08 21.3288 10.176C21.5208 10.272 21.7448 10.32 22.0008 10.32C22.2568 10.32 22.5128 10.272 22.7688 10.176C23.0248 10.08 23.2381 9.95733 23.4088 9.808ZM33.5518 5.792C32.9331 5.792 32.3731 5.89333 31.8718 6.096C31.3704 6.288 31.0078 6.576 30.7838 6.96V12H28.2238V3.6H30.5758V5.296C30.8638 4.73067 31.2371 4.288 31.6958 3.968C32.1544 3.648 32.6344 3.48267 33.1358 3.472C33.2531 3.472 33.3384 3.472 33.3918 3.472C33.4558 3.472 33.5091 3.47733 33.5518 3.488V5.792ZM42.726 12H40.166V7.28C40.166 6.72533 40.0593 6.32533 39.846 6.08C39.6433 5.824 39.3713 5.696 39.03 5.696C38.7953 5.696 38.5553 5.76 38.31 5.888C38.0647 6.016 37.8407 6.192 37.638 6.416C37.446 6.64 37.2967 6.896 37.19 7.184V12H34.63V3.6H36.934V5.008C37.1473 4.67733 37.414 4.39467 37.734 4.16C38.054 3.92533 38.422 3.74933 38.838 3.632C39.254 3.504 39.7073 3.44 40.198 3.44C40.742 3.44 41.1793 3.54133 41.51 3.744C41.8513 3.936 42.1073 4.192 42.278 4.512C42.4593 4.832 42.5767 5.17867 42.63 5.552C42.694 5.91467 42.726 6.272 42.726 6.624V12ZM57.3293 12V5.232L54.8813 10.16H53.4413L50.9933 5.232V12H48.3693V0.639999H51.2173L54.1613 6.576L57.1213 0.639999H59.9533V12H57.3293ZM65.7863 12.16C65.0716 12.16 64.4316 12.0427 63.8663 11.808C63.3116 11.5733 62.8423 11.2533 62.4583 10.848C62.0743 10.4427 61.7809 9.97867 61.5783 9.456C61.3863 8.93333 61.2903 8.384 61.2903 7.808C61.2903 7.22133 61.3863 6.66667 61.5783 6.144C61.7809 5.62133 62.0743 5.15733 62.4583 4.752C62.8423 4.34667 63.3116 4.02667 63.8663 3.792C64.4316 3.55733 65.0716 3.44 65.7863 3.44C66.5009 3.44 67.1356 3.55733 67.6903 3.792C68.2449 4.02667 68.7143 4.34667 69.0983 4.752C69.4823 5.15733 69.7756 5.62133 69.9783 6.144C70.1809 6.66667 70.2823 7.22133 70.2823 7.808C70.2823 8.384 70.1809 8.93333 69.9783 9.456C69.7756 9.97867 69.4823 10.4427 69.0983 10.848C68.7143 11.2533 68.2449 11.5733 67.6903 11.808C67.1356 12.0427 66.5009 12.16 65.7863 12.16ZM63.9143 7.808C63.9143 8.24533 63.9943 8.62933 64.1543 8.96C64.3249 9.29067 64.5489 9.54667 64.8263 9.728C65.1036 9.90933 65.4236 10 65.7863 10C66.1383 10 66.4529 9.90933 66.7303 9.728C67.0183 9.536 67.2423 9.27467 67.4023 8.944C67.5623 8.61333 67.6423 8.23467 67.6423 7.808C67.6423 7.37067 67.5623 6.98667 67.4023 6.656C67.2423 6.32533 67.0183 6.06933 66.7303 5.888C66.4529 5.70667 66.1383 5.616 65.7863 5.616C65.4236 5.616 65.1036 5.70667 64.8263 5.888C64.5489 6.06933 64.3249 6.32533 64.1543 6.656C63.9943 6.98667 63.9143 7.37067 63.9143 7.808ZM76.8799 5.792C76.2612 5.792 75.7012 5.89333 75.1999 6.096C74.6985 6.288 74.3359 6.576 74.1119 6.96V12H71.5519V3.6H73.9039V5.296C74.1919 4.73067 74.5652 4.288 75.0239 3.968C75.4825 3.648 75.9625 3.48267 76.4639 3.472C76.5812 3.472 76.6665 3.472 76.7199 3.472C76.7839 3.472 76.8372 3.47733 76.8799 3.488V5.792ZM81.9116 12.16C81.197 12.16 80.5623 12.048 80.0076 11.824C79.453 11.5893 78.9783 11.2747 78.5836 10.88C78.1996 10.4853 77.9063 10.032 77.7036 9.52C77.501 8.99733 77.3996 8.45333 77.3996 7.888C77.3996 7.07733 77.5756 6.34133 77.9276 5.68C78.2903 5.008 78.8076 4.46933 79.4796 4.064C80.1516 3.648 80.9623 3.44 81.9116 3.44C82.861 3.44 83.6663 3.64267 84.3276 4.048C84.9996 4.45333 85.5116 4.98667 85.8636 5.648C86.2156 6.29867 86.3916 7.008 86.3916 7.776C86.3916 7.92533 86.381 8.07467 86.3596 8.224C86.349 8.36267 86.3383 8.48533 86.3276 8.592H80.1196C80.1516 8.96533 80.253 9.28 80.4236 9.536C80.605 9.792 80.8343 9.98933 81.1116 10.128C81.389 10.256 81.6823 10.32 81.9916 10.32C82.3756 10.32 82.733 10.2293 83.0636 10.048C83.405 9.86667 83.6396 9.62133 83.7676 9.312L85.9436 9.92C85.7303 10.3573 85.4263 10.7467 85.0316 11.088C84.6476 11.4187 84.189 11.68 83.6556 11.872C83.133 12.064 82.5516 12.16 81.9116 12.16ZM80.0556 7.024H83.7036C83.661 6.672 83.5596 6.368 83.3996 6.112C83.2396 5.84533 83.0263 5.64267 82.7596 5.504C82.493 5.35467 82.1996 5.28 81.8796 5.28C81.549 5.28 81.2503 5.35467 80.9836 5.504C80.7276 5.64267 80.5196 5.84533 80.3596 6.112C80.1996 6.368 80.0983 6.672 80.0556 7.024ZM98.1823 8.528L91.4143 12.528V9.664L94.4703 7.856L91.4143 5.936V3.216L98.1823 7.312V8.528Z" fill="#4BA87D"/>
</svg>
